<?xml version="1.0" encoding="UTF-8"?>
<svg width="40px" height="34px" viewBox="0 0 40 34" version="1.1" xmlns="http://www.w3.org/2000/svg" xmlns:xlink="http://www.w3.org/1999/xlink">
    <title>latex 2</title>
    <g id="latex-2" stroke="none" stroke-width="1" fill="none" fill-rule="evenodd">
        <path d="M34.106,0 L5.894,0 C2.639,0 0,2.638 0,5.893 L0,28.106 C0,31.361 2.639,34 5.894,34 L34.106,34 C37.361,34 40,31.361 40,28.106 L40,5.893 C40,2.638 37.361,0 34.106,0 L34.106,0 Z" id="Path" fill="none"></path>
        <path d="M32.565,10.174 C31.7,10.174 30.999,9.473 30.999,8.608 C30.999,7.744 31.7,7.043 32.565,7.043 C33.43,7.043 34.131,7.744 34.131,8.608 C34.131,9.473 33.43,10.174 32.565,10.174 L32.565,10.174 Z" id="Path" fill="#888888"></path>
        <path d="M28.565,10.174 C27.701,10.174 27,9.473 27,8.608 C27,7.744 27.701,7.043 28.565,7.043 C29.43,7.043 30.131,7.744 30.131,8.608 C30.131,9.473 29.43,10.174 28.565,10.174 L28.565,10.174 Z" id="Path" fill="#888888"></path>
        <path d="M24.566,10.174 C23.701,10.174 23,9.473 23,8.608 C23,7.744 23.701,7.043 24.566,7.043 C25.43,7.043 26.131,7.744 26.131,8.608 C26.131,9.473 25.43,10.174 24.566,10.174 L24.566,10.174 Z" id="Path" fill="#888888"></path>
        <path d="M23.179,23.964 C22.292,25.982 21.109,27.093 19.849,27.093 C18.025,27.093 17.517,25.56 17.268,24.556 L15.412,26.615 C15.162,26.914 14.781,27.092 14.379,27.092 C13.626,27.092 13.013,26.482 13.013,25.731 C13.013,24.981 13.627,24.37 14.379,24.37 C14.548,24.37 14.713,24.402 14.867,24.462 L16.758,22.36 C16.754,22.341 16.752,22.33 16.752,22.33 L16.418,20.67 C16.23,19.733 16.034,19.656 15.816,19.656 C15.574,19.656 15.176,20.071 14.832,20.998 L14.696,21.368 L12.8,21.083 L13.054,20.502 C13.939,18.484 15.119,17.373 16.378,17.373 C18.203,17.373 18.708,18.916 18.955,19.919 L20.833,17.834 C21.091,17.542 21.464,17.373 21.854,17.373 C22.607,17.373 23.221,17.982 23.221,18.733 C23.221,19.483 22.607,20.094 21.855,20.094 C21.687,20.094 21.521,20.062 21.366,20.002 L19.467,22.113 L19.47,22.124 L19.807,23.795 C19.996,24.732 20.192,24.809 20.412,24.809 C20.654,24.809 21.054,24.393 21.399,23.467 L21.537,23.097 L23.434,23.381 L23.179,23.964 Z" id="Path" fill="#888888"></path>
        <path d="M11.504,16.642 C11.234,18.182 10.954,19.773 10.539,21.314 C10.129,22.835 8.881,27.467 5.369,27.467 C4.628,27.467 4.028,27.237 3.586,26.786 C2.847,26.03 2.862,24.929 2.863,24.882 C2.863,23.985 3.559,23.247 4.413,23.247 C5.254,23.247 5.94,23.964 5.961,24.853 C5.972,24.953 5.959,25.047 5.943,25.118 C5.898,25.458 5.759,25.767 5.546,26.011 C5.616,26.017 5.711,26.007 5.827,25.971 C6.71,25.69 7.089,23.847 7.315,22.746 C7.35,22.575 7.382,22.416 7.414,22.275 C7.689,21.047 7.904,19.777 8.112,18.549 C8.192,18.074 8.673,15.933 8.819,15.272 L6.026,15.272 L6.898,13.373 L9.297,13.373 C9.729,11.866 10.212,10.261 10.832,9.156 C11.978,7.117 13.359,6.083 14.938,6.083 C15.679,6.083 16.279,6.312 16.721,6.763 C17.461,7.519 17.445,8.621 17.444,8.668 C17.445,9.564 16.75,10.303 15.895,10.303 C15.053,10.303 14.365,9.585 14.346,8.695 C14.335,8.598 14.349,8.509 14.364,8.44 C14.406,8.097 14.547,7.785 14.762,7.54 C14.689,7.535 14.596,7.543 14.48,7.579 C13.844,7.781 13.305,9.389 13.045,10.163 C13.001,10.294 12.96,10.415 12.922,10.522 C12.657,11.276 12.459,12.419 12.237,13.373 L15.196,13.373 L14.324,15.273 L11.842,15.273 C11.736,15.838 11.604,16.075 11.504,16.642 L11.504,16.642 Z" id="Path" fill="#888888"></path>
    </g>
</svg>