<?xml version="1.0" encoding="UTF-8"?>
<svg width="40px" height="34px" viewBox="0 0 40 34" version="1.1" xmlns="http://www.w3.org/2000/svg" xmlns:xlink="http://www.w3.org/1999/xlink">
    <title>latex 1</title>
    <g id="latex-1" stroke="none" stroke-width="1" fill="none" fill-rule="evenodd">
        <path d="M34.106,-0.000400000001 L5.894,-0.000400000001 C2.639,-0.000400000001 0,2.6386 0,5.8936 L0,28.1056 C0,31.3616 2.639,33.9996 5.894,33.9996 L34.106,33.9996 C37.361,33.9996 40,31.3616 40,28.1056 L40,5.8936 C40,2.6386 37.361,-0.000400000001 34.106,-0.000400000001 L34.106,-0.000400000001 Z" id="Path" fill="none"></path>
        <path d="M36.054,13.8586 C35.353,16.2576 33.767,17.7516 31.311,18.2186 C28.064,18.8356 24.941,16.5896 24.402,13.3106 C24.354,13.0136 24.337,12.7106 24.32,12.4086 C24.304,12.1296 24.414,11.9036 24.664,11.7646 C24.915,11.6256 25.159,11.6606 25.392,11.8166 C26.025,12.2396 26.66,12.6596 27.291,13.0846 C27.588,13.2846 27.697,13.5646 27.605,13.8626 C27.512,14.1626 27.263,14.3326 26.91,14.3346 C26.648,14.3366 26.387,14.3356 26.119,14.3356 C26.639,15.6026 28.088,16.7516 29.622,16.9246 L29.622,16.7466 C29.622,15.0926 29.622,13.4376 29.623,11.7826 L28.915,11.7826 L28.915,10.4496 L29.623,10.4496 C29.623,9.9946 29.623,9.5386 29.623,9.0836 C29.623,8.9756 29.611,8.9076 29.49,8.8536 C28.603,8.4606 28.127,7.5066 28.349,6.5886 C28.581,5.6296 29.421,5.0066 30.419,5.0536 C31.345,5.0966 32.128,5.8276 32.264,6.7786 C32.386,7.6316 31.902,8.5006 31.096,8.8526 C30.981,8.9026 30.953,8.9616 30.954,9.0756 C30.954,9.5336 30.954,9.9916 30.954,10.4496 L31.663,10.4496 L31.663,11.7826 L30.954,11.7826 C30.955,13.4406 30.956,15.0976 30.956,16.7556 L30.956,16.9206 C32.417,16.7756 33.887,15.6716 34.465,14.3346 C34.173,14.3346 33.891,14.3406 33.609,14.3336 C33.209,14.3246 32.919,14.0106 32.945,13.6226 C32.958,13.4156 33.053,13.2456 33.225,13.1296 C33.898,12.6766 34.568,12.2176 35.252,11.7816 C35.71,11.4906 36.28,11.8276 36.251,12.3826 C36.225,12.8776 36.192,13.3876 36.054,13.8586 L36.054,13.8586 Z" id="Path" fill="#888888"></path>
        <path d="M23.179,23.9646 C22.292,25.9826 21.109,27.0936 19.849,27.0936 C18.025,27.0936 17.517,25.5596 17.268,24.5566 L15.412,26.6156 C15.162,26.9136 14.781,27.0926 14.379,27.0926 C13.626,27.0926 13.013,26.4826 13.013,25.7316 C13.013,24.9816 13.627,24.3706 14.379,24.3706 C14.548,24.3706 14.713,24.4026 14.867,24.4626 L16.758,22.3606 C16.754,22.3416 16.752,22.3306 16.752,22.3306 L16.418,20.6706 C16.23,19.7336 16.034,19.6566 15.816,19.6566 C15.574,19.6566 15.176,20.0716 14.832,20.9976 L14.695,21.3686 L12.8,21.0836 L13.054,20.5026 C13.939,18.4846 15.119,17.3726 16.378,17.3726 C18.203,17.3726 18.708,18.9156 18.955,19.9186 L20.833,17.8346 C21.091,17.5426 21.464,17.3726 21.854,17.3726 C22.607,17.3726 23.221,17.9826 23.221,18.7336 C23.221,19.4836 22.607,20.0946 21.855,20.0946 C21.687,20.0946 21.521,20.0626 21.366,20.0026 L19.467,22.1136 L19.47,22.1246 L19.807,23.7956 C19.996,24.7326 20.192,24.8086 20.412,24.8086 C20.654,24.8086 21.054,24.3936 21.399,23.4676 L21.537,23.0976 L23.434,23.3816 L23.179,23.9646 Z" id="Path" fill="#888888"></path>
        <path d="M11.504,16.6416 C11.234,18.1816 10.954,19.7736 10.539,21.3146 C10.129,22.8356 8.881,27.4676 5.369,27.4676 C4.628,27.4676 4.028,27.2376 3.586,26.7866 C2.846,26.0306 2.862,24.9296 2.863,24.8826 C2.863,23.9856 3.559,23.2476 4.413,23.2476 C5.254,23.2476 5.94,23.9646 5.961,24.8526 C5.972,24.9536 5.959,25.0476 5.943,25.1186 C5.898,25.4576 5.759,25.7666 5.546,26.0116 C5.616,26.0166 5.711,26.0076 5.827,25.9716 C6.71,25.6906 7.089,23.8476 7.315,22.7466 C7.35,22.5756 7.382,22.4166 7.414,22.2756 C7.689,21.0476 7.904,19.7776 8.112,18.5496 C8.192,18.0746 8.673,15.9336 8.819,15.2726 L6.026,15.2726 L6.898,13.3726 L9.297,13.3726 C9.729,11.8666 10.211,10.2616 10.832,9.1566 C11.978,7.1176 13.359,6.0826 14.938,6.0826 C15.679,6.0826 16.279,6.3116 16.721,6.7636 C17.461,7.5196 17.445,8.6216 17.444,8.6686 C17.445,9.5646 16.75,10.3036 15.895,10.3036 C15.053,10.3036 14.365,9.5846 14.346,8.6956 C14.335,8.5986 14.349,8.5096 14.364,8.4406 C14.406,8.0976 14.547,7.7856 14.762,7.5396 C14.689,7.5356 14.596,7.5436 14.48,7.5796 C13.844,7.7816 13.305,9.3896 13.045,10.1636 C13.001,10.2946 12.96,10.4156 12.922,10.5226 C12.657,11.2766 12.459,12.4186 12.237,13.3726 L15.196,13.3726 L14.324,15.2736 L11.842,15.2736 C11.736,15.8386 11.604,16.0756 11.504,16.6416 L11.504,16.6416 Z" id="Path" fill="#888888"></path>
    </g>
</svg>